<svg width="1440" height="382" viewBox="0 0 1440 382" fill="none" xmlns="http://www.w3.org/2000/svg">
<path d="M1118.69 311.798H1102.8V327.669H1118.69V311.798Z" fill="#CDFA50"/>
<path d="M1046.74 247.601H1030.85V263.472H1046.74V247.601Z" fill="#CDFA50"/>
<path d="M1118.69 247.601H1102.8V263.472H1118.69V247.601Z" fill="#CDFA50"/>
<path d="M1190.63 247.601H1174.74V263.472H1190.63V247.601Z" fill="#CDFA50"/>
<path d="M1262.59 311.798H1246.7V327.669H1262.59V311.798Z" fill="#CDFA50"/>
<path d="M1262.59 247.601H1246.7V263.472H1262.59V247.601Z" fill="#CDFA50"/>
<path d="M51.1897 183.074H35.2994V198.945H51.1897V183.074Z" fill="#CDFA50"/>
<path d="M51.1897 118.876H35.2994V134.747H51.1897V118.876Z" fill="#CDFA50"/>
<path d="M51.1897 54.6786H35.2994V70.5496H51.1897V54.6786Z" fill="#CDFA50"/>
<path d="M123.126 118.876H107.236V134.747H123.126V118.876Z" fill="#CDFA50"/>
<path d="M411.442 118.876H395.551V134.747H411.442V118.876Z" fill="#CDFA50"/>
<path d="M123.126 183.074H107.236V198.945H123.126V183.074Z" fill="#CDFA50"/>
<path d="M123.126 247.271H107.236V263.142H123.126V247.271Z" fill="#CDFA50"/>
<path d="M51.1897 311.469H35.2994V327.34H51.1897V311.469Z" fill="#CDFA50"/>
<path d="M123.126 311.469H107.236V327.34H123.126V311.469Z" fill="#CDFA50"/>
<path d="M123.126 54.6786H107.236V70.5496H123.126V54.6786Z" fill="#CDFA50"/>
<path d="M1406.5 311.798H1390.61V327.669H1406.5V311.798Z" fill="#CDFA50"/>
<path d="M1334.54 247.601H1318.65V263.472H1334.54V247.601Z" fill="#CDFA50"/>
<path opacity="0.5" d="M195.082 183.074H179.191V198.945H195.082V183.074Z" fill="#1A1A1A"/>
<path d="M195.082 54.6786H179.191V70.5496H195.082V54.6786Z" fill="#CDFA50"/>
<path d="M267.037 183.074H251.146V198.945H267.037V183.074Z" fill="#CDFA50"/>
<path d="M267.037 118.876H251.146V134.747H267.037V118.876Z" fill="#CDFA50"/>
<path opacity="0.5" d="M338.992 118.876H323.101V134.747H338.992V118.876Z" fill="#1A1A1A"/>
<path opacity="0.5" d="M553.794 118.876H537.904V134.747H553.794V118.876Z" fill="#1A1A1A"/>
<path d="M338.992 183.074H323.101V198.945H338.992V183.074Z" fill="#CDFA50"/>
<path d="M267.037 247.271H251.146V263.142H267.037V247.271Z" fill="#CDFA50"/>
<path d="M195.082 311.469H179.191V327.34H195.082V311.469Z" fill="#CDFA50"/>
<path d="M338.992 54.6786H323.101V70.5496H338.992V54.6786Z" fill="#CDFA50"/>
<path d="M1334.54 183.403H1318.65V199.274H1334.54V183.403Z" fill="#CDFA50"/>
<path d="M1406.5 183.403H1390.61V199.274H1406.5V183.403Z" fill="#CDFA50"/>
<path d="M1190.63 119.206H1174.74V135.077H1190.63V119.206Z" fill="#CDFA50"/>
<path d="M1262.59 119.206H1246.7V135.077H1262.59V119.206Z" fill="#CDFA50"/>
<path d="M1262.59 55.0081H1246.7V70.879H1262.59V55.0081Z" fill="#CDFA50"/>
<path d="M1334.54 55.0081H1318.65V70.879H1334.54V55.0081Z" fill="#CDFA50"/>
<path d="M1406.5 55.0081H1390.61V70.879H1406.5V55.0081Z" fill="#CDFA50"/>
<path opacity="0.5" d="M759.487 311.798H743.597V327.669H759.487V311.798Z" fill="#1A1A1A"/>
<path opacity="0.5" d="M687.532 247.601H671.642V263.472H687.532V247.601Z" fill="#1A1A1A"/>
<path opacity="0.5" d="M759.487 247.601H743.597V263.472H759.487V247.601Z" fill="#1A1A1A"/>
<path opacity="0.5" d="M831.442 247.601H815.552V263.472H831.442V247.601Z" fill="#1A1A1A"/>
<path d="M903.398 311.798H887.507V327.669H903.398V311.798Z" fill="#CDFA50"/>
<path opacity="0.5" d="M903.398 247.601H887.507V263.472H903.398V247.601Z" fill="#1A1A1A"/>
<path opacity="0.5" d="M1047.29 311.798H1031.4V327.669H1047.29V311.798Z" fill="#1A1A1A"/>
<path opacity="0.5" d="M975.334 247.601H959.444V263.472H975.334V247.601Z" fill="#1A1A1A"/>
<path opacity="0.5" d="M193.67 247.601H177.78V263.472H193.67V247.601Z" fill="#1A1A1A"/>
<path d="M483.653 54.6786H467.763V70.5496H483.653V54.6786Z" fill="#CDFA50"/>
<path d="M483.653 311.469H467.763V327.34H483.653V311.469Z" fill="#CDFA50"/>
<path opacity="0.5" d="M482.224 247.601H466.334V263.472H482.224V247.601Z" fill="#1A1A1A"/>
<path opacity="0.5" d="M1118.2 183.403H1102.31V199.274H1118.2V183.403Z" fill="#1A1A1A"/>
<path opacity="0.5" d="M1190.15 183.403H1174.26V199.274H1190.15V183.403Z" fill="#1A1A1A"/>
<path opacity="0.5" d="M411.442 183.403H395.551V199.274H411.442V183.403Z" fill="#1A1A1A"/>
<path opacity="0.5" d="M831.442 119.206H815.552V135.077H831.442V119.206Z" fill="#1A1A1A"/>
<path d="M903.398 119.206H887.507V135.077H903.398V119.206Z" fill="#CDFA50"/>
<path opacity="0.5" d="M1046.74 119.206H1030.85V135.077H1046.74V119.206Z" fill="#1A1A1A"/>
<path opacity="0.5" d="M1333.61 119.206H1317.72V135.077H1333.61V119.206Z" fill="#1A1A1A"/>
<path opacity="0.5" d="M903.398 55.0081H887.507V70.879H903.398V55.0081Z" fill="#1A1A1A"/>
<path d="M975.334 55.0081H959.444V70.879H975.334V55.0081Z" fill="#CDFA50"/>
<path opacity="0.5" d="M1047.29 55.0081H1031.4V70.879H1047.29V55.0081Z" fill="#1A1A1A"/>
</svg>
