<svg width="32" height="32" viewBox="0 0 32 32" fill="none" xmlns="http://www.w3.org/2000/svg">
<path d="M32 16C32 24.8366 24.8366 32 16 32C7.16344 32 0 24.8366 0 16C0 7.16344 7.16344 0 16 0C24.8366 0 32 7.16344 32 16Z" fill="white"/>
<path fill-rule="evenodd" clip-rule="evenodd" d="M16 29.6C23.5111 29.6 29.6 23.5111 29.6 16C29.6 8.48893 23.5111 2.4 16 2.4C8.48893 2.4 2.4 8.48893 2.4 16C2.4 23.5111 8.48893 29.6 16 29.6ZM16 32C24.8366 32 32 24.8366 32 16C32 7.16344 24.8366 0 16 0C7.16344 0 0 7.16344 0 16C0 24.8366 7.16344 32 16 32Z" fill="url(#paint0_linear)"/>
<path d="M13.3128 24C12.5878 24 12 23.4122 12 22.6872V11.2C12 10.3163 12.7163 9.6 13.6 9.6H17.3128C18.4615 9.6 19.412 9.792 20.1641 10.176C20.9162 10.56 21.4769 11.088 21.8462 11.76C22.2154 12.432 22.4 13.1863 22.4 14.0229C22.4 14.8183 22.2222 15.552 21.8667 16.224C21.5111 16.8823 20.9573 17.4171 20.2051 17.8286C19.453 18.2263 18.4889 18.4251 17.3128 18.4251H15.4256C14.9838 18.4251 14.6256 18.7833 14.6256 19.2251V22.6872C14.6256 23.4122 14.0379 24 13.3128 24ZM14.6256 15.4857C14.6256 15.9275 14.9838 16.2857 15.4256 16.2857H17.1487C18.065 16.2857 18.7214 16.0869 19.1179 15.6891C19.5282 15.2777 19.7333 14.7223 19.7333 14.0229C19.7333 13.3097 19.5282 12.7543 19.1179 12.3566C18.7214 11.9451 18.065 11.7394 17.1487 11.7394H15.4256C14.9838 11.7394 14.6256 12.0976 14.6256 12.5394V15.4857Z" fill="#2F2F2F"/>
<defs>
<linearGradient id="paint0_linear" x1="30.0469" y1="4.23437" x2="3.35937" y2="26.9844" gradientUnits="userSpaceOnUse">
<stop stop-color="#07DAFF"/>
<stop offset="0.331972" stop-color="#F9C778"/>
<stop offset="0.715624" stop-color="#F029A7"/>
<stop offset="1" stop-color="#501BF2"/>
</linearGradient>
</defs>
</svg>
