<?xml version="1.0" encoding="UTF-8"?>
<svg width="690px" height="188px" viewBox="0 0 690 188" version="1.1" xmlns="http://www.w3.org/2000/svg" xmlns:xlink="http://www.w3.org/1999/xlink">
    <!-- Generator: Sketch 54.1 (76490) - https://sketchapp.com -->
    <title>Group</title>
    <desc>Created with Sketch.</desc>
    <defs>
        <linearGradient x1="13.8586957%" y1="100%" x2="93.2370924%" y2="100%" id="linearGradient-1">
            <stop stop-color="#F2F1F1" offset="0%"></stop>
            <stop stop-color="#1D2733" offset="100%"></stop>
        </linearGradient>
        <linearGradient x1="13.8586957%" y1="100%" x2="93.2370924%" y2="100%" id="linearGradient-2">
            <stop stop-color="#F2F1F1" offset="0%"></stop>
            <stop stop-color="#1D2733" offset="100%"></stop>
        </linearGradient>
    </defs>
    <g id="Page-1" stroke="none" stroke-width="1" fill="none" fill-rule="evenodd">
        <g id="Artboard" transform="translate(-55.000000, -206.000000)">
            <g id="Group" transform="translate(55.000000, 206.000000)">
                <path d="M277.203843,88.7366597 L250.666443,152.703608 L236,152.703608 L277.426269,56 L278.32684,56 L319.753109,152.703608 L302.513605,152.703608 L277.203843,88.7366597 Z M261.987908,118.130155 L294.022507,118.130155 L299.168627,130.887887 L257.485052,130.887887 L261.987908,118.130155 Z M351.338561,129.549241 L364.950454,98.7384021 L381.032081,98.7384021 L351.184582,154.106959 L350.541317,154.106959 L319.278636,98.7384021 L336.389486,98.7384021 L351.338561,129.549241 L351.338561,129.549241 Z M400.722139,126.675016 L429.265812,116.603943 C428.385268,114.261991 426.944308,112.197937 424.942896,110.411727 C422.798669,108.498057 419.839679,107.541237 416.065839,107.541237 C413.06392,107.541237 410.405118,108.264168 408.089352,109.710052 C405.773586,111.155935 403.95102,113.133364 402.621599,115.642397 C401.292178,118.15143 400.627478,121.106942 400.627478,124.509021 C400.627478,125.252188 400.659031,125.974186 400.722139,126.675016 L400.722139,126.675016 Z M403.53908,134.935711 C404.904497,136.965138 406.635664,138.571392 408.732617,139.75451 C411.219921,141.157868 414.050259,141.859536 417.223716,141.859536 C419.453712,141.859536 421.576466,141.476808 423.59204,140.71134 C425.607613,139.945872 427.558831,138.925264 429.445752,137.649485 L436.007055,148.238402 C433.176675,150.024493 430.067591,151.449093 426.679712,152.512242 C423.291832,153.575392 420.054097,154.106959 416.96641,154.106959 C410.533727,154.106959 405.044587,152.873724 400.498825,150.407216 C395.953062,147.940709 392.479466,144.538681 390.077931,140.201031 C387.676396,135.86338 386.475647,130.887915 386.475647,125.274485 C386.475647,119.91621 387.847932,115.047058 390.592543,110.666881 C393.337154,106.286705 397.046612,102.799626 401.721028,100.205541 C406.395444,97.6114561 411.562955,96.314433 417.223716,96.314433 C424.685627,96.314433 430.839468,98.4619631 435.685422,102.757088 C440.531377,107.052212 443.769112,113.112074 445.398725,120.936856 L403.53908,134.935711 L403.53908,134.935711 Z M473.164698,108.424152 C474.969442,104.864348 477.692202,101.997261 481.333054,99.8228093 C485.106894,97.568932 489.566821,96.4420103 494.712967,96.4420103 C499.859113,96.4420103 504.10462,97.9303975 507.449614,100.907216 C510.794609,103.884036 512.509966,107.796368 512.595735,112.64433 L512.595735,152.703608 L498.186598,152.703608 L498.186598,117.747423 C498.100829,115.02576 497.328918,112.835704 495.870844,111.177191 C494.412769,109.518677 492.097038,108.646908 488.923581,108.561856 C486.007432,108.561856 483.391513,109.433625 481.075748,111.177191 C478.759982,112.920756 476.937416,115.302176 475.607995,118.321521 C474.278574,121.340866 473.613873,124.806681 473.613873,128.719072 L473.613873,152.703608 L459.204736,152.703608 L459.204736,98.7384021 L472.19869,98.7384021 L473.164698,108.424152 L473.164698,108.424152 Z M537.337252,75.0090206 L551.746389,75.0090206 L551.746389,98.7384021 L565.89822,98.7384021 L565.89822,109.965206 L551.746389,109.965206 L551.746389,152.703608 L537.337252,152.703608 L537.337252,109.965206 L527.945583,109.965206 L527.945583,98.7384021 L537.337252,98.7384021 L537.337252,75.0090206 Z M618.124176,142.990779 C617.020512,145.224709 615.492457,147.229053 613.539973,149.003866 C611.481515,150.875009 609.058574,152.342134 606.271078,153.405284 C603.483582,154.468433 600.460267,155 597.201041,155 C592.226433,155 588.109578,153.49035 584.850352,150.471005 C581.591126,147.45166 579.87577,143.560591 579.704232,138.79768 L579.704232,98.7384021 L594.113369,98.7384021 L594.113369,133.694588 C594.284907,136.331199 595.056817,138.499991 596.429123,140.201031 C597.801429,141.90207 599.988508,142.752577 602.990426,142.752577 C605.820807,142.752577 608.329515,141.880808 610.516627,140.137242 C612.703739,138.393677 614.440538,135.990995 615.727074,132.929124 C617.013611,129.867253 617.656869,126.4227 617.656869,122.595361 L617.656869,98.7384021 L632.066006,98.7384021 L632.066006,152.703608 L619.072052,152.703608 L618.124176,142.990779 L618.124176,142.990779 Z M667.871683,153.851804 C663.754766,153.851804 659.830888,153.128873 656.099932,151.68299 C652.368976,150.237106 649.259893,148.110839 646.772589,145.304124 L652.81928,137.266753 C655.220815,139.563156 657.600872,141.242907 659.959522,142.306057 C662.318173,143.369206 664.569578,143.900773 666.713805,143.900773 C668.343418,143.900773 669.822913,143.709409 671.152334,143.326675 C672.481755,142.943941 673.553853,142.327324 674.368659,141.476804 C675.183466,140.626284 675.590863,139.4781 675.590863,138.032216 C675.590863,136.331177 674.990488,134.991629 673.789721,134.013531 C672.588953,133.035433 671.045133,132.227452 669.158213,131.589562 C667.271292,130.951672 665.255749,130.335055 663.111521,129.739691 C658.47999,128.208755 655.006393,126.061225 652.690627,123.297036 C650.374862,120.532847 649.216996,117.322183 649.216996,113.664948 C649.216996,110.858233 649.946023,108.157874 651.404097,105.563789 C652.862172,102.969704 655.092135,100.822173 658.094054,99.121134 C661.095972,97.4200946 664.869756,96.5695876 669.415519,96.5695876 C673.532435,96.5695876 677.113242,97.0373665 680.158045,97.9729381 C683.202848,98.9085098 686.054628,100.396897 688.71347,102.438144 L683.181391,111.113402 C681.637547,109.582467 679.814981,108.41302 677.713638,107.605026 C675.612295,106.797032 673.703961,106.350516 671.988579,106.265464 C670.444735,106.180412 669.07245,106.371776 667.871683,106.839562 C666.670915,107.307348 665.684585,107.966491 664.912663,108.81701 C664.140741,109.66753 663.754786,110.645613 663.754786,111.751289 C663.754786,113.452328 664.376603,114.813139 665.620255,115.833763 C666.863907,116.854387 668.472053,117.662368 670.444743,118.257732 C672.417432,118.853096 674.390092,119.490976 676.362781,120.171392 C679.021623,120.936859 681.358796,121.999993 683.37437,123.360825 C685.389944,124.721656 686.99809,126.358882 688.198858,128.272552 C689.399625,130.186221 690,132.546378 690,135.353093 C690,138.585068 689.185206,141.62563 687.555593,144.474871 C685.92598,147.324112 683.481597,149.599218 680.222371,151.300258 C676.963145,153.001297 672.84629,153.851804 667.871683,153.851804 Z" id="Aventus" fill="#1D2733" fill-rule="nonzero"></path>
                <g id="Group-2">
                    <polygon id="Triangle" fill="url(#linearGradient-1)" points="125.751085 131.903226 179.25958 156.16129 7.46914917 156.16129"></polygon>
                    <polygon id="Triangle" fill="url(#linearGradient-2)" points="80.666811 -3.125688e-13 80.666811 43.9901478 0 144.032258"></polygon>
                    <polygon id="Triangle" fill="#5100FF" transform="translate(112.037237, 118.258065) scale(1, -1) rotate(90.000000) translate(-112.037237, -118.258065) " points="181.779173 46.5542325 148.159984 118.957614 42.295302 189.961897"></polygon>
                    <polygon id="Rectangle" fill="#1D2733" points="80.666811 0 179.25958 156.16129 125.737791 132.027273 80.666811 44.0090909"></polygon>
                </g>
            </g>
        </g>
    </g>
</svg>
