<?xml version="1.0" encoding="UTF-8"?>
<svg width="164px" height="104px" viewBox="0 0 164 104" version="1.1" xmlns="http://www.w3.org/2000/svg" xmlns:xlink="http://www.w3.org/1999/xlink">
    <!-- Generator: Sketch 53.2 (72643) - https://sketchapp.com -->
    <title>Group 3</title>
    <desc>Created with Sketch.</desc>
    <defs>
        <linearGradient x1="13.8586957%" y1="100%" x2="93.2370924%" y2="100%" id="linearGradient-1">
            <stop stop-color="#F2F1F1" offset="0%"></stop>
            <stop stop-color="#1D2733" offset="100%"></stop>
        </linearGradient>
        <linearGradient x1="13.8586957%" y1="100%" x2="93.2370924%" y2="100%" id="linearGradient-2">
            <stop stop-color="#F2F1F1" offset="0%"></stop>
            <stop stop-color="#1D2733" offset="100%"></stop>
        </linearGradient>
    </defs>
    <g id="Page-1" stroke="none" stroke-width="1" fill="none" fill-rule="evenodd">
        <g id="2" transform="translate(-374.000000, -197.000000)">
            <g id="Group-3" transform="translate(374.000000, 197.000000)">
                <g id="Group-2" transform="translate(48.000000, 0.000000)">
                    <polygon id="Triangle" fill="url(#linearGradient-1)" points="45.7168809 47.2481961 65.1699257 55.9375196 2.71541357 55.9375196"></polygon>
                    <polygon id="Triangle" fill="url(#linearGradient-2)" points="29.3264666 -1.11963236e-13 29.3264666 15.7574246 0 51.5928579"></polygon>
                    <polygon id="Triangle" fill="#5100FF" transform="translate(40.731204, 42.360452) scale(1, -1) rotate(90.000000) translate(-40.731204, -42.360452) " points="65.7130084 16.2924814 53.6704974 42.6147734 15.7493987 68.428422"></polygon>
                    <polygon id="Rectangle" fill="#1D2733" points="29.3264666 0 65.1699257 55.9375196 45.7120479 47.2926302 29.3264666 15.7642101"></polygon>
                </g>
                <path d="M14.8743311,78.9173736 L5.29449465,102.203745 L1.42108547e-14,102.203745 L14.9546253,67 L15.2797258,67 L30.2343511,102.203745 L24.0109977,102.203745 L14.8743311,78.9173736 Z M9.38147298,89.6177096 L20.9457639,89.6177096 L22.8034814,94.2620032 L7.75597024,94.2620032 L9.38147298,89.6177096 Z M41.6365029,93.774686 L46.5503116,82.5583834 L52.3556786,82.5583834 L41.5809175,102.714617 L41.3487028,102.714617 L30.0630695,82.5583834 L36.2399799,82.5583834 L41.6365029,93.774686 L41.6365029,93.774686 Z M59.463667,92.7283601 L69.7677555,89.0621114 C69.4498845,88.2095527 68.929707,87.4581595 68.2072098,86.807912 C67.433157,86.1112645 66.3649802,85.762946 65.0026472,85.762946 C63.9189733,85.762946 62.9591623,86.02612 62.1231852,86.5524759 C61.2872082,87.0788318 60.6292732,87.7986901 60.1493605,88.7120724 C59.6694477,89.6254547 59.429495,90.7013719 59.429495,91.9398564 C59.429495,92.2103972 59.4408856,92.4732316 59.463667,92.7283601 L59.463667,92.7283601 Z M60.4805653,95.7355633 C60.9734724,96.4743508 61.598413,97.0590877 62.3553999,97.4897872 C63.2533012,98.000662 64.2750355,98.2560956 65.4206337,98.2560956 C66.2256486,98.2560956 66.9919493,98.1167682 67.719559,97.8381092 C68.4471686,97.5594502 69.1515461,97.1879104 69.8327125,96.7234788 L72.2013023,100.578242 C71.1795526,101.228447 70.0571928,101.747054 68.8341894,102.134081 C67.611186,102.521107 66.4423838,102.714617 65.3277478,102.714617 C63.0055894,102.714617 61.024044,102.265674 59.383052,101.367772 C57.7420601,100.469871 56.4881134,99.2314052 55.6211743,97.6523375 C54.7542351,96.0732698 54.3207721,94.2620134 54.3207721,92.218514 C54.3207721,90.267901 54.8161584,88.4953467 55.806946,86.9007979 C56.7977336,85.3062491 58.1368248,84.0368216 59.8242599,83.0924772 C61.511695,82.1481328 63.3771343,81.6759676 65.4206337,81.6759676 C68.1143374,81.6759676 70.3358356,82.4577492 72.0851949,84.0213359 C73.8345542,85.5849225 75.0033564,87.7909399 75.5916366,90.6394542 L60.4805653,95.7355633 L60.4805653,95.7355633 Z M85.6149803,86.0843603 C86.2664815,84.7884579 87.249381,83.7447303 88.5637058,82.9531484 C89.9260387,82.1326524 91.5360444,81.7224106 93.3937711,81.7224106 C95.2514978,81.7224106 96.7840993,82.2642394 97.9916217,83.3479133 C99.1991441,84.4315872 99.818377,85.855823 99.8493391,87.6206634 L99.8493391,102.203745 L94.6477303,102.203745 L94.6477303,89.4783808 C94.6167682,88.4875932 94.3381134,87.6903308 93.8117575,87.0865696 C93.2854016,86.4828085 92.4494371,86.1654516 91.303839,86.1344895 C90.2511272,86.1344895 89.3067969,86.4518463 88.4708199,87.0865696 C87.6348429,87.7212929 86.9769079,88.5882191 86.4969951,89.687374 C86.0170824,90.786529 85.7771296,92.0482161 85.7771296,93.4724733 L85.7771296,102.203745 L80.5755209,102.203745 L80.5755209,82.5583834 L85.2662573,82.5583834 L85.6149803,86.0843603 L85.6149803,86.0843603 Z M108.780873,73.9199974 L113.982482,73.9199974 L113.982482,82.5583834 L119.091205,82.5583834 L119.091205,86.6453617 L113.982482,86.6453617 L113.982482,102.203745 L108.780873,102.203745 L108.780873,86.6453617 L105.390539,86.6453617 L105.390539,82.5583834 L108.780873,82.5583834 L108.780873,73.9199974 Z M137.94445,98.6679105 C137.546034,99.481145 136.994416,100.210802 136.289581,100.8569 C135.54649,101.538066 134.671824,102.072155 133.665555,102.459181 C132.659286,102.846208 131.567888,103.039718 130.391328,103.039718 C128.595526,103.039718 127.109367,102.490149 125.932806,101.390994 C124.756246,100.291839 124.137013,98.8753434 124.075089,97.1414652 L124.075089,82.5583834 L129.276698,82.5583834 L129.276698,95.2837478 C129.338622,96.2435732 129.617277,97.0330952 130.112671,97.6523375 C130.608064,98.2715797 131.397586,98.5811962 132.48126,98.5811962 C133.50301,98.5811962 134.408638,98.2638393 135.198172,97.629116 C135.987706,96.9943927 136.614679,96.1197262 137.079111,95.0050901 C137.543543,93.8904541 137.775755,92.6365074 137.775755,91.2432124 L137.775755,82.5583834 L142.977364,82.5583834 L142.977364,102.203745 L138.286627,102.203745 L137.94445,98.6679105 L137.94445,98.6679105 Z M155.90299,102.621732 C154.416809,102.621732 153.000313,102.358558 151.653461,101.832202 C150.30661,101.305846 149.18425,100.531805 148.286349,99.5100549 L150.469167,96.58415 C151.336106,97.420127 152.195291,98.0316195 153.046749,98.4186459 C153.898208,98.8056723 154.710951,98.9991826 155.485004,98.9991826 C156.073284,98.9991826 156.607372,98.9295189 157.087285,98.7901894 C157.567198,98.6508599 157.954218,98.4263879 158.248358,98.1167668 C158.542498,97.8071457 158.689566,97.3891635 158.689566,96.8628076 C158.689566,96.2435653 158.472835,95.7559194 158.039365,95.3998551 C157.605895,95.0437908 157.048586,94.7496552 156.367419,94.5174393 C155.686253,94.2852235 154.958654,94.0607515 154.184601,93.8440168 C152.512647,93.2866987 151.258701,92.5049171 150.422724,91.4986485 C149.586747,90.4923799 149.168764,89.3235777 149.168764,87.9922069 C149.168764,86.9704572 149.431938,85.9874249 149.958294,85.0430805 C150.48465,84.0987361 151.289653,83.3169545 152.373327,82.6977122 C153.457001,82.07847 154.819313,81.7688535 156.460305,81.7688535 C157.946487,81.7688535 159.239135,81.9391426 160.33829,82.2797258 C161.437445,82.620309 162.46692,83.1621379 163.426746,83.9052285 L161.429699,87.0633482 C160.872381,86.5060302 160.214446,86.0803075 159.455875,85.7861674 C158.697303,85.4920274 158.008406,85.3294787 157.389164,85.2985166 C156.831846,85.2675545 156.33646,85.3372182 155.90299,85.5075098 C155.46952,85.6778014 155.113461,85.9177542 154.834802,86.2273753 C154.556143,86.5369964 154.416816,86.8930554 154.416816,87.2955628 C154.416816,87.9148051 154.641288,88.4101914 155.090239,88.7817368 C155.539189,89.1532821 156.11972,89.4474178 156.831849,89.6641526 C157.543977,89.8808873 158.256095,90.1130997 158.968224,90.3607966 C159.928049,90.6394556 160.771754,91.0264762 161.499364,91.52187 C162.226973,92.0172638 162.807504,92.6132755 163.240974,93.309923 C163.674443,94.0065705 163.891175,94.8657562 163.891175,95.8875059 C163.891175,97.0640662 163.597039,98.1709451 163.008759,99.2081758 C162.420479,100.245407 161.538072,101.073631 160.361512,101.692873 C159.184952,102.312115 157.698792,102.621732 155.90299,102.621732 Z" id="Aventus" fill="#1D2733" fill-rule="nonzero"></path>
            </g>
        </g>
    </g>
</svg>