<?xml version="1.0" standalone="no"?>
<!DOCTYPE svg PUBLIC "-//W3C//DTD SVG 20010904//EN"
 "http://www.w3.org/TR/2001/REC-SVG-20010904/DTD/svg10.dtd">
<svg version="1.0" xmlns="http://www.w3.org/2000/svg"
 width="512.000000pt" height="512.000000pt" viewBox="0 0 512.000000 512.000000"
 preserveAspectRatio="xMidYMid meet">

<g transform="translate(0.000000,512.000000) scale(0.100000,-0.100000)"
fill="#000000" stroke="none">
<path d="M0 2560 l0 -2560 2560 0 2560 0 0 2560 0 2560 -2560 0 -2560 0 0
-2560z m1148 769 c88 -43 128 -160 84 -246 -20 -39 -74 -93 -93 -93 -5 0 -9
-197 -9 -490 l0 -490 180 0 180 0 0 488 -1 487 -40 28 c-45 31 -78 93 -79 147
0 49 37 118 83 154 35 28 46 31 106 31 55 0 74 -5 103 -24 77 -53 106 -141 74
-226 -16 -41 -74 -105 -96 -105 -6 0 -10 -181 -10 -488 l0 -488 75 7 c91 9
119 14 213 41 l72 21 0 373 0 373 -30 18 c-86 50 -113 176 -58 261 82 124 271
109 330 -26 38 -84 3 -198 -72 -237 l-30 -16 0 -339 c0 -187 2 -340 6 -340 3
0 31 18 63 39 68 47 137 112 179 170 l31 42 -24 35 c-99 146 -15 335 156 352
43 4 51 9 75 46 41 61 141 163 209 211 120 85 266 147 447 187 85 19 133 21
545 25 447 5 452 4 472 -16 25 -25 27 -68 4 -93 -13 -14 -31 -18 -90 -18 l-73
0 0 -487 1 -488 40 -28 c46 -31 78 -93 79 -148 0 -50 -43 -129 -86 -159 -26
-17 -53 -25 -98 -28 -54 -3 -66 0 -107 26 -81 52 -112 158 -69 241 19 38 72
91 91 91 5 0 9 197 9 490 l0 490 -180 0 -180 0 0 -487 1 -488 40 -28 c141 -97
77 -321 -96 -335 -185 -15 -277 212 -135 332 17 14 36 26 41 26 5 0 9 195 9
485 l0 485 -43 0 c-53 0 -137 -15 -239 -42 l-78 -20 0 -373 0 -372 39 -26
c100 -66 106 -221 12 -300 -30 -25 -87 -47 -121 -47 -34 0 -91 22 -121 47 -94
79 -88 234 12 300 l39 26 0 339 0 339 -41 -23 c-52 -29 -151 -118 -200 -180
l-38 -48 31 -51 c23 -37 33 -66 36 -107 8 -115 -81 -219 -197 -230 -47 -4 -51
-7 -87 -58 -115 -169 -344 -314 -584 -373 -145 -35 -241 -41 -657 -41 -390 0
-404 1 -423 20 -11 11 -20 31 -20 45 0 47 31 65 115 65 l75 0 0 484 0 483 -40
27 c-198 131 -26 428 188 325z"/>
</g>
</svg>
