<svg xmlns="http://www.w3.org/2000/svg" viewBox="0 0 328.82 329.5"><defs><style>.cls-1,.cls-2{fill:#ff7e36;}.cls-2,.cls-3{fill-rule:evenodd;}.cls-3{fill:#050000;}.cls-4,.cls-5{fill:#fff;}.cls-4{stroke:#de6f28;stroke-miterlimit:10;stroke-width:0.5px;}</style></defs><title>logo-1</title><g id="图层_5" data-name="图层 5"><path d="M51.48,250.36a17.83,17.83,0,0,1-1.91,8.32,14.82,14.82,0,0,1-4.83,5.64,14,14,0,0,1-4.8,2.05,28.69,28.69,0,0,1-6.19.58H23.2V238.6l4.91-4.9h5.94a25.34,25.34,0,0,1,6.31.68,13.54,13.54,0,0,1,4.46,1.93A14.56,14.56,0,0,1,49.7,242,18.53,18.53,0,0,1,51.48,250.36Zm-8-.07a13.32,13.32,0,0,0-1.08-5.62A7.94,7.94,0,0,0,39,241a8.19,8.19,0,0,0-2.43-.88,21.16,21.16,0,0,0-3.73-.24H30.91v20.82h1.95a20.55,20.55,0,0,0,4-.28,8.2,8.2,0,0,0,2.52-1,7.9,7.9,0,0,0,3.09-3.58A13.78,13.78,0,0,0,43.5,250.29Z"/><path d="M80,254.42q0,6.2-3.25,9.75t-9.11,3.56q-5.87,0-9.12-3.56t-3.24-9.75q0-6.22,3.26-9.78t9.1-3.55q5.91,0,9.13,3.57T80,254.42Zm-8.9,6.1a6.63,6.63,0,0,0,1-2.31,15.3,15.3,0,0,0,.35-3.74,16.15,16.15,0,0,0-.36-3.71,6.72,6.72,0,0,0-1-2.39,3.68,3.68,0,0,0-1.55-1.3,5,5,0,0,0-1.95-.38,5.1,5.1,0,0,0-1.86.32,3.81,3.81,0,0,0-1.56,1.25,6.65,6.65,0,0,0-1.05,2.39,15.58,15.58,0,0,0-.4,3.82,16.12,16.12,0,0,0,.35,3.56,6.51,6.51,0,0,0,1,2.42,3.91,3.91,0,0,0,1.54,1.28,5.08,5.08,0,0,0,2,.4,5,5,0,0,0,1.88-.37A3.54,3.54,0,0,0,71.14,260.52Z"/><path d="M101.59,241.87v7.66H101a5.86,5.86,0,0,0-1.49-.27c-.68-.06-1.25-.09-1.7-.09a14.73,14.73,0,0,0-2.73.23,14.13,14.13,0,0,0-2.55.76V267H85.23v-21.5l3.58-3.58h3.67"/><path d="M277.87,241.87v7.66h-.64a5.85,5.85,0,0,0-1.48-.27c-.69-.06-1.25-.09-1.71-.09a14.73,14.73,0,0,0-2.73.23,14.29,14.29,0,0,0-2.54.76V267h-7.26v-21.5l3.58-3.58h3.68"/><path d="M111.56,267.62a7.28,7.28,0,0,1-5.39-2.21,7.71,7.71,0,0,1-2.17-5.65,8.23,8.23,0,0,1,1.11-4.49,7.59,7.59,0,0,1,3.13-2.75,16.51,16.51,0,0,1,5-1.43q3-.42,6.17-.62v-.14a3,3,0,0,0-1.53-2.87,10.19,10.19,0,0,0-4.5-.79,11.68,11.68,0,0,0-3.82.71c-1.35.46-2.33.83-2.91,1.08H106v-6.05c.77-.23,2-.49,3.73-.8a30.13,30.13,0,0,1,5.18-.46q6.16,0,8.91,2.12t2.74,6.62v13.29L122.76,267m-3.4-6.56v-5.21c-1,.09-2,.21-3.18.37a14.18,14.18,0,0,0-2.59.54,3.56,3.56,0,0,0-1.66,1.11,3,3,0,0,0-.57,1.9,5.52,5.52,0,0,0,.12,1.27,1.86,1.86,0,0,0,.6.93,2.83,2.83,0,0,0,1.11.66,7,7,0,0,0,2,.21,5.42,5.42,0,0,0,2.2-.49A6.54,6.54,0,0,0,119.36,260.39Z"/><path d="M169.6,267.62a7.25,7.25,0,0,1-5.39-2.21,7.71,7.71,0,0,1-2.17-5.65,8.23,8.23,0,0,1,1.1-4.49,7.61,7.61,0,0,1,3.14-2.75,16.53,16.53,0,0,1,5-1.43c2-.28,4-.49,6.17-.62v-.14a3,3,0,0,0-1.52-2.87,10.21,10.21,0,0,0-4.51-.79,11.73,11.73,0,0,0-3.82.71c-1.35.46-2.32.83-2.91,1.08H164v-6.05a37.38,37.38,0,0,1,3.73-.8,30,30,0,0,1,5.17-.46c4.11,0,7.09.71,8.92,2.12s2.74,3.61,2.74,6.62v13.29L180.8,267m-3.41-6.56v-5.21c-1,.09-2,.21-3.17.37a14.32,14.32,0,0,0-2.6.54A3.52,3.52,0,0,0,170,257.2a2.91,2.91,0,0,0-.58,1.9,5.52,5.52,0,0,0,.12,1.27,2,2,0,0,0,.61.93,2.79,2.79,0,0,0,1.1.66,7,7,0,0,0,2,.21,5.35,5.35,0,0,0,2.2-.49A6.42,6.42,0,0,0,177.39,260.39Z"/><path d="M159,240.13H145.27v6.18H158v6.44H145.27V267h-7.68V238l4.28-4.28H159Z"/><path d="M203.22,267.62a17.7,17.7,0,0,1-5.4-.78,11.59,11.59,0,0,1-4.25-2.41,10.9,10.9,0,0,1-2.77-4.11,17.67,17.67,0,0,1,.07-11.86,11.21,11.21,0,0,1,2.94-4.22,11.7,11.7,0,0,1,4.22-2.33,16.84,16.84,0,0,1,5-.73,15.14,15.14,0,0,1,4.26.56,18.55,18.55,0,0,1,3.64,1.45V250h-1l-1-.93a8.47,8.47,0,0,0-1.46-1.05,9,9,0,0,0-1.8-.82,7.54,7.54,0,0,0-2.29-.32,5.27,5.27,0,0,0-4.45,2,9,9,0,0,0-1.55,5.55,8.33,8.33,0,0,0,1.59,5.5,5.64,5.64,0,0,0,4.53,1.87,7.86,7.86,0,0,0,4.28-1.16,9.09,9.09,0,0,0,1.2-.94q.53-.5,1-1h1v6.86a19,19,0,0,1-3.57,1.42A15.11,15.11,0,0,1,203.22,267.62Z"/><path d="M230.11,266.73a17.94,17.94,0,0,1-2.47.52,22.2,22.2,0,0,1-3.19.19c-2.82,0-4.91-.63-6.29-1.9s-2.06-3.43-2.06-6.5V247.32h-3v-5.45h3V234.7h7.26v7.17h6.75v5.45h-6.75v8.9c0,.88,0,1.65,0,2.31a5.11,5.11,0,0,0,.32,1.76,2.38,2.38,0,0,0,1,1.24,3.84,3.84,0,0,0,2.08.46,5.83,5.83,0,0,0,1.47-.26,5.57,5.57,0,0,0,1.27-.5h.6Z"/><path d="M257.51,254.42q0,6.2-3.25,9.75t-9.11,3.56q-5.86,0-9.12-3.56t-3.24-9.75q0-6.22,3.26-9.78t9.1-3.55q5.91,0,9.13,3.57T257.51,254.42Zm-8.9,6.1a6.63,6.63,0,0,0,1-2.31,15.3,15.3,0,0,0,.35-3.74,16.15,16.15,0,0,0-.36-3.71,6.72,6.72,0,0,0-1-2.39,3.68,3.68,0,0,0-1.55-1.3,5,5,0,0,0-1.95-.38,5.1,5.1,0,0,0-1.86.32,3.81,3.81,0,0,0-1.56,1.25,6.65,6.65,0,0,0-1,2.39,15.58,15.58,0,0,0-.4,3.82,16.12,16.12,0,0,0,.35,3.56,6.51,6.51,0,0,0,1,2.42,3.91,3.91,0,0,0,1.54,1.28,5,5,0,0,0,2,.4,5,5,0,0,0,1.88-.37A3.6,3.6,0,0,0,248.61,260.52Z"/><path d="M293.34,258.08l5.15-16.21h7.44l-12.54,34.28h-7.85l3.59-9.39-8.78-24.89H288Z"/><polygon class="cls-1" points="298.75 239.89 306.42 239.89 307.98 236.31 300.1 236.31 298.75 239.89"/><path class="cls-2" d="M165.55,209.94l46.88-18a13.35,13.35,0,0,0,7.28-7.7l17.61-52a3.6,3.6,0,0,0-4.62-4.5l-49,19.16a7.74,7.74,0,0,0-4,4.06L161,205.41a3.59,3.59,0,0,0,4.58,4.53"/><path class="cls-2" d="M229.31,123.05l-44.08,17.23c-4.34.67-6.85-1.55-10-4L122.25,94.51a6.58,6.58,0,0,1,3-11.82l47.9-11.4a6.54,6.54,0,0,1,4.55,1l19.45,13a41.23,41.23,0,0,0-8.05-1.61C168.54,82.1,150,89.13,149.18,99.29s16.46,19.62,37.07,21.25,26.63-4.44,27.43-14.6c0-.4-7.89-16.64-8-17.06l25.07,18.88C235.3,110.77,234.43,121.24,229.31,123.05Z"/><path class="cls-3" d="M145.09,41.09c3.1-1.18,12.28,6.53,17.8,10.36,5.1-1.76,13-3.69,19.86-2.59a31.12,31.12,0,0,1,9.7,3c2.91-2,18.63-14.08,19.65-9.92a23.81,23.81,0,0,1,.23,9.27c-.84,5.52-2.26,11.2-3.7,16.83-.71,2.77-2.57,5.46-2.31,8a69.77,69.77,0,0,0,1.84,11.21c1,3.36,1.44,7,3.7,9.27,12.3,9.53,23.15,23.22,25.42,30,.95,2.83.48,5.1-1.39,6.68-3.12,2.65-7.46,2.2-10.86-.22a61.83,61.83,0,0,1-7.39-7.11,72.41,72.41,0,0,0-5.54-5.18,3.39,3.39,0,0,0-2.06-1c-1-.14-3.1.66-4.63,1.07a108.74,108.74,0,0,1-13.65,2.52c1.77,2.14,5.55,5.14,7.86,7.76,1.32,1.51,3.18,3.73,3.23,6.48.05,2.34-2.64,5.69-9.7,4.74-2-.27-8.74-3.18-9.93-3.89-28.78-17-30-33.36-33.27-61-.92-7.66-4.39-17.27-5.78-25.67-.58-3.53-1.91-9.38.92-10.57"/><path class="cls-4" d="M199.64,71.12c-1.47.17-2.65,2.8-4.32,4-2.47,1.8-6.13,1.11-5.94-.29s1-1.51,3.14-1.83,5.88-2,4.72-8.11c-1-5.34-7-4.14-7-4.14a4.73,4.73,0,0,0-3.74-2.18c-2.62-.2-4.81,3.2-4.81,3.2a1.69,1.69,0,0,1-2.55-1.11,4,4,0,0,0-4.91-1.83c-2.3.95-4.32,3.25-3.75,5.75s3.11,3.42,4.89,3.3,2.89.83,2.73,1.66c-.27,1.32-3.83,2.28-7.27.31-2-1.13-2.81-4.25-2.75-4.92l.12-1.58s-5.5,0-6.77,4.62,1.9,6.89,3.8,6.71c1.27-.11.31-1.86,1.83-3.29a1.68,1.68,0,0,1,2.25.1,1.42,1.42,0,0,1-.54,2.18c-.88.51-1.55,2.8,1,4.24,1.14.65-.59,4.07-2.61,1.46-1.18-1.53-1.06-2.19-2.33-2.07s-2.78-1.09-3-1.28-1.72.59-1.15,2.3.5,4,6.26,4.18c1.2.06,1.6.26,1.85,1.21s3.12,5.31,7.36,3,1.67-6-.17-6.55a1.73,1.73,0,0,1-1-2.75c.48-.49,1-.31,2.23.21,3.61,1.47,5.3,6,2.94,7.86-1,.78,1,2.08,2.66,2.32s8-.39,8.69-3.94a15.16,15.16,0,0,0,.15-3.4c.07-1.63,2.45-1.83,2.51-.75s0,1.32.48,1.78c1.38,1.24,5.09-.36,6.17-2.83S201.51,70.89,199.64,71.12Zm-16.47,6.93c-.66,0-1.54-1-1.06-1.5a5.43,5.43,0,0,0,1.19-4c-.11-1.39-.93-1.94-1-2.75a1.39,1.39,0,0,1,1.16-1.36c1.39-.45,2.45,2.73,2.34,5.44C185.74,76.11,184.67,78,183.17,78.05ZM184.65,62c.5-1.3,1.31-1.16,1.65-1.15s1.27.38,1.23,1.24c0,0-.5,2.61.5,3.43,1.54,1.25,3.56.73,4,.71a1.28,1.28,0,0,1,.34,2.27c-1.11.72-4.42,1-6.19-.78A5.93,5.93,0,0,1,184.65,62Z"/><path class="cls-2" d="M119.48,99l53,41.43a7.14,7.14,0,0,1,2.4,7.84l-18.11,52.5a7.15,7.15,0,0,1-11.21,3.43L96.17,162.77a7.16,7.16,0,0,1-2.4-7.84l14.5-52.5A7.15,7.15,0,0,1,119.48,99Z"/><path class="cls-5" d="M145.94,150.51a24.61,24.61,0,0,1-.53,9.32,14.58,14.58,0,0,1-3.62,7.07,8.44,8.44,0,0,1-5.45,2.67,9.82,9.82,0,0,1-4.57-.83,29,29,0,0,1-5.38-3.13l-8.94-6.29,6.85-27.94,5.34-1.92,5,3.55a31.37,31.37,0,0,1,5.18,4.44,21.33,21.33,0,0,1,3.31,4.57A25,25,0,0,1,145.94,150.51Zm-9.44,9.38a12.08,12.08,0,0,0,2.18-4.88,17.56,17.56,0,0,0,.44-6.18,13.83,13.83,0,0,0-2-5.64,12.88,12.88,0,0,0-1.84-2.31,27.71,27.71,0,0,0-3.1-2.46l-1.65-1.16-5,20.53,1.64,1.16a21.85,21.85,0,0,0,3.49,2.13,6,6,0,0,0,2.38.5,4.58,4.58,0,0,0,3.49-1.69"/><path class="cls-5" d="M217.29,149.32l-2,6.67-12.65,4.63-2,6.4,11.73-4.28-2,6.66-11.73,4.29-4.5,14.71L187,191l9.18-30c2.06-2.3,3.22-3.58,5.29-5.88Z"/></g></svg>