<?xml version="1.0" standalone="no"?>
<!DOCTYPE svg PUBLIC "-//W3C//DTD SVG 20010904//EN"
 "http://www.w3.org/TR/2001/REC-SVG-20010904/DTD/svg10.dtd">
<svg version="1.0" xmlns="http://www.w3.org/2000/svg"
 width="1000.000000pt" height="1000.000000pt" viewBox="0 0 1000.000000 1000.000000"
 preserveAspectRatio="xMidYMid meet">

<g transform="translate(0.000000,1000.000000) scale(0.100000,-0.100000)"
fill="#000000" stroke="none">
<path d="M0 5000 l0 -5000 5000 0 5000 0 0 5000 0 5000 -5000 0 -5000 0 0
-5000z m4689 2793 c-8 -10 -402 -441 -876 -958 -894 -976 -909 -991 -1034
-1044 -82 -34 -194 -54 -284 -49 l-83 4 -21 -80 c-38 -155 -85 -486 -68 -486
2 0 55 55 116 122 184 201 291 265 492 292 39 6 212 -8 524 -40 93 -10 233 -7
305 6 140 25 305 110 412 211 25 24 224 238 440 474 945 1032 1303 1420 1313
1423 19 5 235 -86 372 -158 190 -98 383 -228 532 -359 l45 -38 -28 -34 c-127
-151 -1646 -1795 -1685 -1823 -115 -84 -277 -133 -415 -123 -49 3 -171 28
-306 62 -260 65 -351 75 -454 51 -104 -25 -180 -70 -271 -161 -122 -121 -1150
-1236 -1153 -1249 -7 -29 151 -282 269 -431 78 -100 339 -366 351 -359 4 3
376 407 826 897 875 954 867 946 1012 1000 130 49 177 51 527 17 278 -27 327
-30 407 -20 169 20 333 94 452 202 32 29 287 303 567 608 280 305 513 555 518
555 20 0 132 -262 189 -440 69 -216 113 -455 126 -686 l7 -117 -168 -186
c-177 -194 -240 -250 -341 -298 -162 -76 -285 -75 -624 7 -228 55 -238 56
-345 52 -220 -8 -230 -16 -754 -587 -235 -256 -656 -714 -935 -1018 -280 -305
-504 -557 -500 -562 13 -12 213 -67 326 -90 195 -40 357 -53 598 -47 124 3
235 9 247 12 12 4 392 406 845 894 452 487 853 916 891 953 75 74 186 136 292
163 80 20 357 16 379 -6 7 -7 -27 -137 -62 -239 -144 -415 -372 -780 -682
-1090 -139 -139 -244 -224 -413 -337 -280 -186 -632 -339 -937 -407 -239 -53
-325 -61 -625 -61 -301 0 -391 9 -622 61 -127 28 -410 117 -438 138 -15 11 85
124 925 1042 518 566 976 1064 1017 1107 87 89 176 146 283 179 61 19 96 23
190 22 106 -1 133 -5 345 -60 205 -52 241 -58 330 -58 110 0 173 15 260 65 66
38 102 71 231 214 59 66 121 134 136 151 l29 31 -11 124 c-14 159 -43 331 -80
472 -27 106 -122 373 -138 388 -4 4 -221 -226 -482 -512 -272 -297 -505 -542
-545 -574 -38 -31 -110 -76 -160 -100 -197 -97 -336 -111 -722 -71 -139 14
-277 26 -307 26 -119 0 -244 -45 -333 -121 -29 -24 -209 -215 -400 -424 -191
-209 -568 -620 -837 -913 l-489 -533 -26 23 c-324 288 -549 566 -700 866 l-50
100 567 614 c737 799 691 750 737 785 22 17 67 44 100 59 33 16 66 37 73 47 7
9 19 17 25 17 7 0 6 -4 -3 -11 -11 -8 -8 -9 15 -5 183 34 226 31 546 -49 174
-44 242 -57 304 -57 141 -1 277 54 375 152 72 73 1544 1678 1547 1688 3 9
-136 113 -249 186 -102 66 -300 171 -411 217 l-78 32 -38 -39 c-21 -21 -408
-443 -859 -936 -876 -957 -890 -971 -1053 -1047 -198 -93 -325 -105 -684 -66
-292 31 -391 33 -471 10 -137 -40 -168 -65 -440 -361 -119 -129 -218 -234
-221 -234 -12 0 7 438 22 540 50 328 127 574 270 865 352 715 1007 1255 1775
1463 132 36 351 78 414 81 26 1 27 -1 15 -16z m-769 -2381 c0 -5 -7 -9 -15 -9
-8 0 -12 4 -9 9 3 4 9 8 15 8 5 0 9 -4 9 -8z"/>
<path d="M4260 7601 c-821 -241 -1476 -841 -1769 -1621 l-40 -105 32 -9 c97
-26 307 47 406 142 55 52 1481 1610 1481 1617 0 8 -9 6 -110 -24z"/>
<path d="M7340 4225 c-41 -14 -101 -42 -133 -62 -41 -28 -278 -276 -856 -898
-439 -473 -795 -861 -790 -863 16 -7 283 69 417 118 365 135 660 328 948 621
279 286 483 616 614 996 l39 113 -82 0 c-59 -1 -103 -8 -157 -25z"/>
</g>
</svg>
