<?xml version="1.0" encoding="UTF-8"?> <!-- Generator: Adobe Illustrator 24.0.3, SVG Export Plug-In . SVG Version: 6.00 Build 0) --> <svg xmlns="http://www.w3.org/2000/svg" xmlns:xlink="http://www.w3.org/1999/xlink" id="Layer_1" x="0px" y="0px" viewBox="0 0 332 332" style="enable-background:new 0 0 332 332;" xml:space="preserve"> <style type="text/css"> .st0{display:none;} .st1{display:inline;fill:#E2262E;} .st2{display:inline;} .st3{fill:#FFFFFF;} .st4{fill:#E3232C;} </style> <g class="st0"> <path class="st1" d="M332,139.9l-28.7-6.1l19.3-22.6c-16.9-16.6-53.1-21-90.3-9.1c-5.4,1.7-10.5,3.7-15.5,6.1 c0.7-5.4,1-11.2,1-16.6c0-39.2-15.2-72.3-36.5-83.2l-15.5,25.4L150.8,8.4c-21,10.8-36.5,43.9-36.5,83.2c0,5.4,0.3,11.2,1,16.6 c-5.1-2.4-10.1-4.4-15.5-6.1c-37.2-12.2-73.4-7.8-90.3,9.1l19.3,22.6l-28.7,6.1c3.7,23.3,30.4,48.3,67.6,60.2 c5.1,1.7,10.5,3,15.9,4.1c-3.7,4.1-7.1,8.5-10.5,12.8c-23,31.8-30.1,67.6-19.3,88.6L81.2,294l-3,29.1c23.3,3.7,55.4-14.2,78.4-45.6 c3.4-4.4,6.4-9.1,9.1-14.2c2.7,5.1,5.7,9.8,9.1,14.2c23,31.8,54.8,49.4,78.4,45.6l-3-29.1l27.4,11.5c10.8-21.3,3.7-57.1-19.3-88.6 c-3.4-4.4-6.8-8.8-10.5-12.8c5.4-1,10.8-2.4,15.9-4.1C301.6,188.2,328.3,163.6,332,139.9L332,139.9L332,139.9z"></path> <g class="st2"> <path class="st3" d="M166.4,266.3l-0.7-0.3l-82.5-60.2l31.8-97.4h102.8l31.8,97.4l-0.7,0.3L166.4,266.3z M85.6,205.1l80.8,58.5 l80.8-58.5l-30.8-94.6H116.3L85.6,205.1z"></path> <polygon class="st3" points="166,215.3 166,214.3 165.7,215.3 117,211.2 117.3,209.2 166,213.3 214.4,209.2 214.7,211.2 "></polygon> <g> <path class="st3" d="M166,239.3l-49.7-28.7v-57.5l49.7-28.7l48.7,28.1l0,0l1,0.7v57.5L166,239.3z M138.6,197.7l27.4,38.9 l27.4-38.9l19.9-42.9l-47.3-4.1l-47,4.4L138.6,197.7z M118.4,209.5l44.3,25.7l-25.4-36.2l0.7-0.7l-1,0.3l-18.6-40.2V209.5 L118.4,209.5z M194.1,198l0.7,0.7l-25.4,36.2l44.3-25.7v-50.7l-18.6,40.2L194.1,198z M166,127.1l-44.3,25.7l44.3-4.1v1v-1 l43.9,3.7L166,127.1z"></path> <path class="st3" d="M195.8,199.1h-59.8l29.7-51.7L195.8,199.1z M139.7,197h52.7L166,151.4L139.7,197z"></path> <path class="st3" d="M167,238.3h-2v-24l-27.7-48.3L117,154.8l1-1.7l20.3,11.5h55.8l20.3-11.5l1,1.7l-20.3,11.5l-27.7,48.3 L167,238.3L167,238.3z M139.7,166.3l26.4,45.6l26.4-45.6H139.7z"></path> <g transform="translate(81 83)"> <g> <circle class="st3" cx="85" cy="155.3" r="3.4"></circle> <path class="st3" d="M85,159.7c-2.4,0-4.4-2-4.4-4.4c0-2.4,2-4.4,4.4-4.4c2.4,0,4.4,2,4.4,4.4S87.4,159.7,85,159.7z M85,152.9 c-1.4,0-2.4,1-2.4,2.4c0,1.4,1,2.4,2.4,2.4s2.4-1,2.4-2.4C87.4,153.9,86,152.9,85,152.9z"></path> </g> <g> <path class="st3" d="M36.3,67.4c2,0,3.4,1.4,3.4,3.4c0,2-1.4,3.4-3.4,3.4c-2,0-3.4-1.4-3.4-3.4C33,69.1,34.3,67.4,36.3,67.4z"></path> <path class="st3" d="M36.3,75.2c-2.4,0-4.4-2-4.4-4.4c0-2.4,2-4.4,4.4-4.4c2.4,0,4.4,2,4.4,4.4C40.7,73.1,38.7,75.2,36.3,75.2z M36.3,68.4c-1.4,0-2.4,1-2.4,2.4c0,1.4,1,2.4,2.4,2.4c1,0,2.4-1,2.4-2.4S37.4,68.4,36.3,68.4z"></path> </g> <g> <circle class="st3" cx="56.6" cy="115" r="3.4"></circle> <path class="st3" d="M56.6,119.4c-2.4,0-4.4-2-4.4-4.4c0-2.4,2-4.4,4.4-4.4c2.4,0,4.4,2,4.4,4.4S59.3,119.4,56.6,119.4z M56.6,112.7c-1.4,0-2.4,1-2.4,2.4c0,1.4,1,2.4,2.4,2.4c1.4,0,2.4-1,2.4-2.4C59.3,113.7,58,112.7,56.6,112.7z"></path> </g> <g> <circle class="st3" cx="113.1" cy="115" r="3.4"></circle> <path class="st3" d="M113.1,119.4c-2.4,0-4.4-2-4.4-4.4c0-2.4,2-4.4,4.4-4.4c2.4,0,4.4,2,4.4,4.4S115.4,119.4,113.1,119.4z M113.1,112.7c-1.4,0-2.4,1-2.4,2.4c0,1.4,1,2.4,2.4,2.4c1.4,0,2.4-1,2.4-2.4C115.4,113.7,114.4,112.7,113.1,112.7z"></path> </g> <g> <circle class="st3" cx="85" cy="66.4" r="3.4"></circle> <path class="st3" d="M85,70.8c-2.4,0-4.4-2-4.4-4.4c0-2.4,2-4.4,4.4-4.4c2.4,0,4.4,2,4.4,4.4C89.4,69.1,87.4,70.8,85,70.8z M85,64c-1.4,0-2.4,1-2.4,2.4c0,1.4,1,2.4,2.4,2.4s2.4-1,2.4-2.4C87.4,65,86,64,85,64z"></path> </g> <g> <circle class="st3" cx="133.7" cy="70.8" r="3.4"></circle> <path class="st3" d="M133.7,75.2c-2.4,0-4.4-2-4.4-4.4c0-2.4,2-4.4,4.4-4.4s4.4,2,4.4,4.4C137.8,73.5,136.1,75.2,133.7,75.2z M133.7,68.4c-1.4,0-2.4,1-2.4,2.4c0,1.4,1,2.4,2.4,2.4s2.4-1,2.4-2.4C136.1,69.4,134.7,68.4,133.7,68.4z"></path> </g> </g> <path class="st3" d="M166,239.3v-1V239.3l-40.6-3v-2l40.6,3l40.6-2.4v2L166,239.3z M214.7,211.2v-1l-1,0.3l-20.6-44.6l-27.4-38.2 l-27.4,38.2l-20.6,44.6l-1-0.3v1l-32.8-4.4l0.3-2l32.1,4.4l20.3-43.9l1,0.3l-0.7-0.7l27.4-38.5l-49-15.9l0.7-2l50,16.2l50.7-16.2 l0.7,2l-49.7,15.9l27.4,38.5l-1,0.3l1-0.3l20.3,43.9l33.1-4.4l0.3,2L214.7,211.2z M232.6,158.8l-18.3-4.1l0.3-2l18.3,4.1 L232.6,158.8z M100.1,158.8l-0.3-2l17.2-4.1l0.3,2L100.1,158.8z"></path> </g> <path class="st3" d="M250.5,295.4L166.4,266l-84.2,29.4l-0.3-1h-1l2.4-89.6l-54.8-70.3l0.7-0.7l-0.3-1l86.2-24l50-75l0.7,0.7 l0.7-0.7l50.7,75l86.2,24l-0.3,1l0.7,0.7l-54.1,71.3l2.4,88.6h-1L250.5,295.4z M124.4,234.6l1.7,1.4l-41.6,56.8l81.5-28.4l0.3,1 l0.3-1l81.5,28.4l-42.6-56.5l1.7-1.4l42.6,56.1l-2.4-85.5h1l-0.7-0.7l53.1-69.3l-67.6,23l-0.7-2l67.6-23.3l-83.5-23.3l0.3-1 l-0.7,0.7l-49.4-72l0.3,72.3h-2L165,37.5l-48.3,72.7l-0.7-0.7l0.3,1l-83.5,23.3l67.6,23.3l-0.7,2l-67.6-23l52.7,67.9l-0.7,0.7h1 l-2,86.9L124.4,234.6z"></path> </g> </g> <g> <path class="st4" d="M87,312c23.5,12.7,50.4,20,79,20c28.6,0,55.5-7.2,79-20l-79-117.7L87,312z"></path> <path class="st4" d="M64.6,165.8v-27.2h87.8v-28H64.6V83.3h202.9v27.2h-87.8v28h87.8v27.2h-87.8l88.2,131.3 c39-30.4,64.2-77.8,64.2-131.1c0-91.7-74.3-166-166-166c-91.7,0-166,74.3-166,166c0,53.3,25.1,100.7,64.2,131.1l88.2-131.3H64.6z"></path> </g> </svg> 