<?xml version="1.0" standalone="no"?>
<!DOCTYPE svg PUBLIC "-//W3C//DTD SVG 20010904//EN"
 "http://www.w3.org/TR/2001/REC-SVG-20010904/DTD/svg10.dtd">
<svg version="1.0" xmlns="http://www.w3.org/2000/svg"
 width="200.000000pt" height="200.000000pt" viewBox="0 0 200.000000 200.000000"
 preserveAspectRatio="xMidYMid meet">

<g transform="translate(0.000000,200.000000) scale(0.100000,-0.100000)"
fill="#000000" stroke="none">
<path d="M790 1981 c-92 -20 -156 -44 -252 -92 -72 -36 -178 -108 -178 -120 0
-5 288 -9 640 -9 352 0 640 4 640 9 0 15 -119 92 -214 137 -143 67 -224 86
-401 90 -120 3 -167 0 -235 -15z"/>
<path d="M211 1622 c-42 -54 -121 -183 -121 -199 0 -11 127 -13 668 -13 l667
1 27 39 28 40 195 0 c107 0 195 4 195 9 0 5 -24 42 -53 82 l-52 74 -762 3
-761 2 -31 -38z"/>
<path d="M30 1262 c-16 -63 -30 -142 -30 -178 l0 -34 579 0 578 0 28 40 28 40
390 0 390 0 -6 48 c-4 26 -11 64 -17 85 l-11 37 -959 0 -959 0 -11 -38z"/>
<path d="M0 910 c0 -39 29 -179 41 -202 9 -17 38 -18 427 -18 229 0 422 4 427
8 6 4 23 24 38 45 l28 37 508 0 c445 0 510 2 515 15 3 8 8 44 12 80 l7 65
-1002 0 -1001 0 0 -30z"/>
<path d="M90 577 c0 -16 79 -145 121 -198 l31 -39 201 0 202 0 28 40 28 40
562 2 561 3 43 70 c24 38 43 75 43 82 0 11 -175 13 -910 13 -739 0 -910 -2
-910 -13z"/>
<path d="M360 226 c0 -11 134 -94 214 -132 157 -74 223 -88 426 -88 203 0 269
14 426 88 80 38 214 121 214 132 0 2 -288 4 -640 4 -352 0 -640 -2 -640 -4z"/>
</g>
</svg>
